<svg width="150" height="160" viewBox="0 0 15 16" version="1.1" xmlns="http://www.w3.org/2000/svg" xmlns:xlink="http://www.w3.org/1999/xlink">
<title>clock</title>
<desc>Created using Figma</desc>
<g id="Canvas" transform="translate(-658 403)">
<g id="clock">
<use xlink:href="#path0_fill" transform="translate(658 -402)" fill="#2A2B30"/>
</g>
</g>
<defs>
<path id="path0_fill" fill-rule="evenodd" d="M 7.5 -0.288452C 6.46634 -0.288452 5.49279 -0.0931406 4.57933 0.297485C 3.66586 0.688112 2.86959 1.22296 2.19051 1.90205C 1.51141 2.58114 0.976564 3.37741 0.585937 4.29087C 0.195311 5.20434 0 6.17789 0 7.21155C 0 8.24521 0.195311 9.21876 0.585937 10.1322C 0.976564 11.0457 1.51141 11.842 2.19051 12.521C 2.86959 13.2001 3.66586 13.735 4.57933 14.1256C 5.49279 14.5162 6.46634 14.7115 7.5 14.7115C 8.53366 14.7115 9.50721 14.5162 10.4207 14.1256C 11.3341 13.735 12.1304 13.2001 12.8095 12.521C 13.4886 11.842 14.0234 11.0457 14.4141 10.1322C 14.8047 9.21876 15 8.24521 15 7.21155C 15 6.17789 14.8047 5.20434 14.4141 4.29087C 14.0234 3.37741 13.4886 2.58114 12.8095 1.90205C 12.1304 1.22296 11.3341 0.688112 10.4207 0.297485C 9.50721 -0.0931406 8.53366 -0.288452 7.5 -0.288452ZM 7.44594 13.2873C 6.60459 13.2873 5.81734 13.128 5.08416 12.8095C 4.35098 12.491 3.70796 12.0583 3.15507 11.5114C 2.60218 10.9645 2.1695 10.3215 1.85699 9.58233C 1.54449 8.84315 1.38824 8.0589 1.38824 7.22957C 1.38824 6.38822 1.54449 5.60097 1.85699 4.86779C 2.1695 4.13461 2.60218 3.4946 3.15507 2.94772C 3.70796 2.40084 4.35098 1.96815 5.08416 1.64964C 5.81734 1.33113 6.60459 1.17188 7.44594 1.17188C 8.27527 1.17188 9.05952 1.33113 9.7987 1.64964C 10.5379 1.96815 11.1809 2.40084 11.7278 2.94772C 12.2747 3.4946 12.7074 4.13461 13.0259 4.86779C 13.3444 5.60097 13.5036 6.38822 13.5036 7.22957C 13.5036 8.0589 13.3444 8.84315 13.0259 9.58233C 12.7074 10.3215 12.2747 10.9645 11.7278 11.5114C 11.1809 12.0583 10.5379 12.491 9.7987 12.8095C 9.05952 13.128 8.27527 13.2873 7.44594 13.2873ZM 9.19471 7.57213L 7.46394 7.57213L 7.46394 4.66948C 7.46394 4.51323 7.40986 4.37802 7.30168 4.26383C 7.19351 4.14965 7.0613 4.09256 6.90505 4.09256C 6.7488 4.09256 6.61358 4.14965 6.4994 4.26383C 6.38521 4.37802 6.32812 4.51323 6.32812 4.66948L 6.32812 8.14905C 6.32812 8.3053 6.38521 8.43751 6.4994 8.54568C 6.61358 8.65386 6.7488 8.70794 6.90505 8.70794L 9.19471 8.70794C 9.35096 8.70794 9.48317 8.65386 9.59134 8.54568C 9.69952 8.43751 9.7536 8.3053 9.7536 8.14905C 9.7536 7.9928 9.69952 7.85758 9.59134 7.7434C 9.48317 7.62922 9.35096 7.57213 9.19471 7.57213Z"/>
</defs>
</svg>
