<svg width="500" height="500" viewBox="0 0 83 83" version="1.1" xmlns="http://www.w3.org/2000/svg" xmlns:xlink="http://www.w3.org/1999/xlink">
<title>done</title>
<desc>Created using Figma</desc>
<g id="Canvas" transform="translate(-1827 449)">
<g id="done">
<g id="Oval">
<use xlink:href="#path0_fill" transform="translate(1827 -449)" fill="#35A634"/>
</g>
<g id="Shape">
<use xlink:href="#path1_fill" transform="translate(1867.16 -430.258)" fill="#37A18E"/>
</g>
<g id="Shape">
<use xlink:href="#path2_fill" transform="translate(1842.17 -440.075)" fill="#F2F1EF"/>
</g>
<g id="Shape">
<use xlink:href="#path3_fill" transform="translate(1842.17 -432.935)" fill="#E6E5E3"/>
</g>
</g>
</g>
<defs>
<path id="path0_fill" d="M 41.5 83C 64.4198 83 83 64.4198 83 41.5C 83 18.5802 64.4198 0 41.5 0C 18.5802 0 0 18.5802 0 41.5C 0 64.4198 18.5802 83 41.5 83Z"/>
<path id="path1_fill" d="M 36.3069 0L 0 37.8745L 0.0641714 41.9462L 1.73198 41.9462L 41.0538 10.018C 39.899 6.46328 38.2954 3.03775 36.3069 0Z"/>
<path id="path2_fill" d="M 67.0938 7.97057L 59.7205 0.727568C 58.7417 -0.242522 57.1105 -0.242522 56.0665 0.727568L 24.5505 32.9975L 10.9132 19.6757C 9.93436 18.7056 8.30313 18.7056 7.25921 19.6757L 0.734105 26.078C -0.244702 27.0481 -0.244702 28.6648 0.734105 29.6349L 22.5278 51.0402C 23.1151 51.6223 23.8981 51.8162 24.6811 51.7515C 25.4641 51.8162 26.247 51.6222 26.8344 51.0402L 67.0938 11.592C 68.0727 10.5572 68.0727 8.94049 67.0938 7.97057Z"/>
<path id="path3_fill" d="M 26.7949 43.9036L 67.0931 4.635C 68.0729 3.66932 68.0729 2.05998 67.0931 1.09431L 65.9175 0L 24.5742 40.0411L 1.71456 18.0893L 0.734813 19.055C -0.244937 20.0207 -0.244937 21.63 0.734813 22.5957L 22.5495 43.9037C 23.1374 44.4832 23.9211 44.6762 24.7049 44.6118C 25.4233 44.676 26.207 44.483 26.7949 43.9036Z"/>
</defs>
</svg>
