<svg width="100" height="160" viewBox="0 0 10 16" version="1.1" xmlns="http://www.w3.org/2000/svg" xmlns:xlink="http://www.w3.org/1999/xlink">
<title>location</title>
<desc>Created using Figma</desc>
<g id="Canvas" transform="translate(-1373 434)">
<g id="location">
<use xlink:href="#path0_fill" transform="translate(1373 -434)" fill="#2A2B30"/>
</g>
</g>
<defs>
<path id="path0_fill" fill-rule="evenodd" d="M 4.97908 0C 6.34589 0 7.5244 0.486107 8.51465 1.45833C 9.50489 2.43056 10 3.6111 10 5C 10 6.41667 9.5816 8.04166 8.74477 9.875C 7.90794 11.7083 7.07114 13.1944 6.23431 14.3333L 4.97908 16C 4.83961 15.8333 4.6583 15.5972 4.43515 15.2917C 4.21199 14.9861 3.81451 14.3958 3.24268 13.5208C 2.67085 12.6458 2.16876 11.7847 1.7364 10.9375C 1.30404 10.0903 0.906557 9.11112 0.543933 8C 0.181309 6.88888 0 5.88889 0 5C 0 3.6111 0.48814 2.43056 1.46444 1.45833C 2.44073 0.486107 3.61227 0 4.97908 0ZM 4.97908 7.41668C 5.62065 7.41668 6.17852 7.18751 6.65272 6.72918C 7.12692 6.27084 7.36402 5.72224 7.36402 5.08334C 7.36402 4.44445 7.12692 3.8889 6.65272 3.41668C 6.17852 2.94445 5.62065 2.70834 4.97908 2.70834C 4.33752 2.70834 3.78662 2.94445 3.32636 3.41668C 2.86611 3.8889 2.63599 4.44445 2.63599 5.08334C 2.63599 5.72224 2.86611 6.27084 3.32636 6.72918C 3.78662 7.18751 4.33752 7.41668 4.97908 7.41668Z"/>
</defs>
</svg>
