<svg width="160" height="160" viewBox="0 0 16 16" version="1.1" xmlns="http://www.w3.org/2000/svg" xmlns:xlink="http://www.w3.org/1999/xlink">
<title>message</title>
<desc>Created using Figma</desc>
<g id="Canvas" transform="translate(-1370 290)">
<g id="message">
<use xlink:href="#path0_fill" transform="translate(1370 -290)" fill="#2A2B30"/>
</g>
</g>
<defs>
<path id="path0_fill" fill-rule="evenodd" d="M 12.8075 4.8075L 12.8075 3.19247L 6.38501 3.19247L 6.38501 4.8075L 12.8075 4.8075ZM 12.8075 7.21128L 12.8075 5.59625L 6.38501 5.59625L 6.38501 7.21128L 12.8075 7.21128ZM 10.4038 9.61502L 10.4038 8L 6.38501 8L 6.38501 9.61502L 10.4038 9.61502ZM 4.80753 4.8075L 4.80753 3.19247L 3.1925 3.19247L 3.1925 4.8075L 4.80753 4.8075ZM 4.80753 7.21128L 4.80753 5.59625L 3.1925 5.59625L 3.1925 7.21128L 4.80753 7.21128ZM 4.80753 9.61502L 4.80753 8L 3.1925 8L 3.1925 9.61502L 4.80753 9.61502ZM 14.4225 0C 14.8482 0 15.2175 0.156494 15.5305 0.469482C 15.8435 0.782473 16 1.1518 16 1.57746L 16 11.1925C 16 11.6182 15.8435 11.9937 15.5305 12.3192C 15.2175 12.6448 14.8482 12.8075 14.4225 12.8075L 3.19249 12.8075L 0 16L 0 1.57746C 0 1.1518 0.156493 0.782473 0.469484 0.469482C 0.782474 0.156494 1.1518 0 1.57746 0L 14.4225 0Z"/>
</defs>
</svg>
