<svg width="190" height="120" viewBox="0 0 19 12" version="1.1" xmlns="http://www.w3.org/2000/svg" xmlns:xlink="http://www.w3.org/1999/xlink">
<title>people</title>
<desc>Created using Figma</desc>
<g id="Canvas" transform="translate(-656 354)">
<g id="people">
<use xlink:href="#path0_fill" transform="translate(656 -354)" fill="#2A2B30"/>
</g>
</g>
<defs>
<path id="path0_fill" fill-rule="evenodd" d="M 12.8057 4.61538C 12.1621 4.61538 11.6086 4.39103 11.1451 3.94231C 10.6817 3.49359 10.45 2.94872 10.45 2.30769C 10.45 1.66666 10.6817 1.1218 11.1451 0.673078C 11.6086 0.224357 12.1621 0 12.8057 0C 13.4751 0 14.0415 0.224357 14.5049 0.673078C 14.9683 1.1218 15.2 1.66666 15.2 2.30769C 15.2 2.94872 14.9683 3.49359 14.5049 3.94231C 14.0415 4.39103 13.4751 4.61538 12.8057 4.61538ZM 6.1943 4.61538C 5.52492 4.61538 4.95853 4.39103 4.49511 3.94231C 4.03169 3.49359 3.79999 2.94872 3.79999 2.30769C 3.79999 1.66666 4.03169 1.1218 4.49511 0.673078C 4.95853 0.224357 5.52492 0 6.1943 0C 6.83793 0 7.39145 0.224357 7.85487 0.673078C 8.31828 1.1218 8.54999 1.66666 8.54999 2.30769C 8.54999 2.94872 8.31828 3.49359 7.85487 3.94231C 7.39145 4.39103 6.83793 4.61538 6.1943 4.61538ZM 6.13212 6.46155C 7.41858 6.46155 8.7765 6.74442 10.2059 7.31018C 11.6353 7.87594 12.35 8.63524 12.35 9.5881L 12.35 12L 0 12L 0 9.5881C 0 8.63524 0.700398 7.87594 2.10122 7.31018C 3.50203 6.74442 4.84565 6.46155 6.13212 6.46155ZM 13.0565 7.38461C 14.442 7.38461 15.7789 7.57522 17.0673 7.95643C 18.3558 8.33764 19 8.9503 19 9.79442L 19 12L 13.68 12L 13.68 9.79442C 13.68 9.2226 13.583 8.78012 13.389 8.46698C 13.1951 8.15384 12.8487 7.80667 12.35 7.42546C 12.5439 7.39823 12.7795 7.38461 13.0565 7.38461Z"/>
</defs>
</svg>
