<svg width="100" height="100" viewBox="0 0 14 13" version="1.1" xmlns="http://www.w3.org/2000/svg" xmlns:xlink="http://www.w3.org/1999/xlink">
<title>user</title>
<desc>Created using Figma</desc>
<g id="Canvas" transform="translate(-1371 480)">
<g id="user">
<use xlink:href="#path0_fill" transform="translate(1371 -480)" fill="#2A2B30"/>
</g>
</g>
<defs>
<path id="path0_fill" fill-rule="evenodd" d="M 6.62114 5.12121C 5.88834 5.12121 5.2683 4.87227 4.76098 4.37437C 4.25366 3.87647 4 3.27189 4 2.56061C 4 1.84932 4.25366 1.24474 4.76098 0.746845C 5.2683 0.248946 5.88834 0 6.62114 0C 7.32575 0 7.9317 0.248946 8.43902 0.746845C 8.94634 1.24474 9.2 1.84932 9.2 2.56061C 9.2 3.27189 8.94634 3.87647 8.43902 4.37437C 7.9317 4.87227 7.32575 5.12121 6.62114 5.12121ZM 6.95139 7.87878C 8.40973 7.87878 9.94907 8.14035 11.5694 8.66349C 13.1898 9.18662 14 9.88872 14 10.7698L 14 13L 0 13L 0 10.7698C 0 9.88872 0.793974 9.18662 2.38194 8.66349C 3.96991 8.14035 5.49305 7.87878 6.95139 7.87878Z"/>
</defs>
</svg>
